<mxfile host="app.diagrams.net" modified="2021-07-21T03:16:35.534Z" agent="5.0 (Windows NT 10.0; Win64; x64) AppleWebKit/537.36 (KHTML, like Gecko) Chrome/91.0.4472.164 Safari/537.36" etag="VIOivNkmnFtX-fXesd2V" version="14.9.0" type="github">
  <diagram id="dHyQosclc3NUR6HKDb04" name="Page-1">
    <mxGraphModel dx="1422" dy="794" grid="1" gridSize="10" guides="1" tooltips="1" connect="1" arrows="1" fold="1" page="1" pageScale="1" pageWidth="827" pageHeight="1169" math="0" shadow="0">
      <root>
        <mxCell id="0" />
        <mxCell id="1" parent="0" />
        <mxCell id="dHHoHIPFjKXj9bd5cRM4-1" value="ghr_test_dut_top.sv&lt;br&gt;&lt;br&gt;module&amp;nbsp;ghr_test_dut_top&lt;br&gt;" style="rounded=0;whiteSpace=wrap;html=1;" vertex="1" parent="1">
          <mxGeometry x="270" y="90" width="190" height="60" as="geometry" />
        </mxCell>
      </root>
    </mxGraphModel>
  </diagram>
</mxfile>
